<svg width="24" height="24" viewBox="0 0 24 24" fill="none" xmlns="http://www.w3.org/2000/svg">
<g clip-path="url(#clip0_19859_2325)">
<path d="M11.9966 0.47998C8.94127 0.47998 6.01111 1.69369 3.85069 3.85411C1.69027 6.01453 0.476563 8.94469 0.476562 12C0.476641 13.5128 0.774693 15.0108 1.3537 16.4084C1.93271 17.8061 2.78133 19.076 3.85112 20.1457C4.9209 21.2154 6.1909 22.0638 7.5886 22.6427C8.98631 23.2216 10.4843 23.5195 11.9972 23.5194C13.51 23.5193 15.008 23.2213 16.4056 22.6422C17.8033 22.0632 19.0732 21.2146 20.1429 20.1448C21.2125 19.075 22.061 17.805 22.6399 16.4073C23.2187 15.0096 23.5166 13.5116 23.5166 11.9988C23.5166 5.63758 18.3578 0.47998 11.9966 0.47998ZM11.9966 21.1188C10.7989 21.1188 9.61298 20.8829 8.50649 20.4246C7.4 19.9662 6.39462 19.2945 5.54775 18.4476C4.70088 17.6007 4.0291 16.5953 3.57078 15.4889C3.11246 14.3824 2.87656 13.1964 2.87656 11.9988C2.87656 10.8011 3.11246 9.6152 3.57078 8.50871C4.0291 7.40222 4.70088 6.39684 5.54775 5.54997C6.39462 4.7031 7.4 4.03132 8.50649 3.573C9.61298 3.11468 10.7989 2.87878 11.9966 2.87878V12L20.147 7.92478C20.7841 9.18879 21.1161 10.5845 21.1166 12C21.1162 14.4185 20.1553 16.7379 18.445 18.448C16.7347 20.1581 14.4151 21.1188 11.9966 21.1188Z" fill="white"/>
</g>
<defs>
<clipPath id="clip0_19859_2325">
<rect width="24" height="24" fill="white"/>
</clipPath>
</defs>
</svg>
