<svg width="24" height="24" viewBox="0 0 24 24" fill="none" xmlns="http://www.w3.org/2000/svg">
<path d="M5 13V3.5C5 3.264 5 3.146 5.073 3.073C5.146 3 5.264 3 5.5 3H9.596C9.796 3 9.896 3 9.986 3.036C10.076 3.073 10.147 3.142 10.291 3.281L11.779 4.719C11.923 4.858 11.995 4.927 12.085 4.964C12.175 5 12.275 5 12.475 5H18.67C18.913 5 19.034 5 19.077 5.078C19.12 5.156 19.054 5.258 18.922 5.462L16.174 9.73C16.09 9.862 16.047 9.927 16.047 10.001C16.047 10.074 16.09 10.141 16.174 10.271L18.922 14.539C19.054 14.743 19.119 14.845 19.077 14.923C19.035 15.001 18.913 15.001 18.67 15.001H12.474C12.274 15.001 12.174 15.001 12.084 14.965C11.994 14.928 11.923 14.859 11.779 14.72L10.291 13.282C10.147 13.143 10.075 13.074 9.985 13.037C9.895 13.001 9.795 13.001 9.595 13.001L5 13ZM5 13V19" stroke="white" stroke-width="2" stroke-linecap="round"/>
<path d="M5 3.5V12.5C5 12.736 5 12.854 5.073 12.927C5.146 13 5.264 13 5.5 13H9.596C9.796 13 9.896 13 9.986 13.036C10.076 13.073 10.147 13.142 10.291 13.281L11.779 14.719C11.923 14.858 11.995 14.927 12.085 14.964C12.175 15 12.275 15 12.475 15H18.67C18.913 15 19.034 15 19.077 14.922C19.12 14.844 19.054 14.742 18.922 14.538L16.174 10.271C16.09 10.139 16.047 10.073 16.047 10C16.047 9.927 16.09 9.86 16.174 9.73L18.922 5.462C19.054 5.258 19.119 5.156 19.077 5.078C19.035 5 18.913 5 18.67 5H12.474C12.274 5 12.174 5 12.084 4.964C11.994 4.927 11.923 4.858 11.779 4.719L10.291 3.281C10.147 3.142 10.075 3.073 9.985 3.036C9.895 3 9.795 3 9.595 3H5.5C5.264 3 5.146 3 5.073 3.073C5 3.146 5 3.264 5 3.5Z" fill="white"/>
</svg>
