<svg width="32" height="32" viewBox="0 0 32 32" fill="none" xmlns="http://www.w3.org/2000/svg">
<path d="M12 9.33333V22.6667H14.6667V17.3333H17.3333C18.0406 17.3333 18.7189 17.0524 19.219 16.5523C19.719 16.0522 20 15.3739 20 14.6667V12C20 11.2928 19.719 10.6145 19.219 10.1144C18.7189 9.61428 18.0406 9.33333 17.3333 9.33333H12ZM14.6667 12H17.3333V14.6667H14.6667V12ZM6.66667 4H25.3333C26.0406 4 26.7189 4.28095 27.219 4.78105C27.719 5.28115 28 5.95942 28 6.66667V25.3333C28 26.0406 27.719 26.7189 27.219 27.219C26.7189 27.719 26.0406 28 25.3333 28H6.66667C5.95942 28 5.28115 27.719 4.78105 27.219C4.28095 26.7189 4 26.0406 4 25.3333V6.66667C4 5.95942 4.28095 5.28115 4.78105 4.78105C5.28115 4.28095 5.95942 4 6.66667 4Z" fill="white"/>
</svg>
