<svg width="34" height="34" viewBox="0 0 34 34" fill="none" xmlns="http://www.w3.org/2000/svg">
<g clip-path="url(#clip0_20407_2603)">
<path d="M21.8887 15.1875C20.2308 15.1875 18.2379 16.0876 17.7568 18.6657C16.6057 24.8212 16.2191 27.1782 14.2949 29.4817H29.4826C27.5583 27.1782 27.1718 24.8212 26.0207 18.6657C25.5396 16.0876 23.6497 15.1875 21.8887 15.1875Z" fill="#666666"/>
<path d="M11.6096 9.82812C9.66168 9.82812 7.31297 11.0981 6.74383 14.7514C5.38912 23.4681 4.9322 28.0038 2.67969 31.2695H20.5475C18.287 28.0038 17.83 23.4681 16.4753 14.7514C15.9062 11.0981 13.6777 9.82812 11.6096 9.82812Z" fill="#666666"/>
<path d="M1.40247 0C0.63415 0 0.00877632 0.625373 0.00877632 1.39369V31.4384C-0.000157584 31.7064 0.0534458 31.9744 0.151719 32.2246C0.258926 32.4747 0.410802 32.707 0.598414 32.8946C0.786026 33.0822 1.01831 33.2341 1.26846 33.3413C1.51861 33.4485 1.78662 33.5021 2.05464 33.4932H31.4561C32.5996 33.4932 33.5198 32.573 33.5198 31.4295C33.5198 30.2859 32.5996 29.3657 31.4561 29.3657H2.79615V1.39369C2.79615 0.625373 2.17971 0 1.40247 0Z" fill="#666666"/>
<path d="M5.72809 0.542969C5.54048 0.542969 5.3618 0.61444 5.23673 0.748448C5.10272 0.882457 5.03125 1.06114 5.03125 1.23981C5.03125 1.41849 5.10272 1.6061 5.23673 1.73118C5.37074 1.86519 5.54942 1.93666 5.72809 1.93666H6.58575C6.77336 1.93666 6.95204 1.86519 7.07711 1.73118C7.20219 1.59717 7.28259 1.41849 7.28259 1.23981C7.28259 1.06114 7.21112 0.873523 7.07711 0.748448C6.9431 0.61444 6.76443 0.542969 6.58575 0.542969H5.72809ZM5.72809 4.2416C5.54048 4.2416 5.3618 4.31308 5.23673 4.44708C5.10272 4.58109 5.03125 4.75977 5.03125 4.93845C5.03125 5.11713 5.10272 5.30474 5.23673 5.42981C5.37074 5.56382 5.54942 5.63529 5.72809 5.63529H6.58575C6.77336 5.63529 6.95204 5.56382 7.07711 5.42981C7.21112 5.2958 7.28259 5.11713 7.28259 4.93845C7.28259 4.75977 7.21112 4.57216 7.07711 4.44708C6.9431 4.31308 6.76443 4.2416 6.58575 4.2416H5.72809Z" fill="#666666"/>
<path d="M5.72809 6.36719C5.63876 6.36719 5.54942 6.38506 5.46008 6.42079C5.37074 6.45653 5.29927 6.51013 5.23673 6.57267C5.17419 6.6352 5.12059 6.71561 5.08485 6.79601C5.04912 6.87642 5.03125 6.97469 5.03125 7.06403C5.03125 7.15337 5.04912 7.24271 5.08485 7.33205C5.12059 7.42139 5.17419 7.49286 5.23673 7.5554C5.29927 7.61793 5.37967 7.67154 5.46008 7.70727C5.54048 7.74301 5.63876 7.76088 5.72809 7.76088H6.58575C6.67509 7.76088 6.76443 7.74301 6.85377 7.70727C6.93417 7.67154 7.01458 7.61793 7.07711 7.5554C7.13965 7.49286 7.19325 7.41245 7.22899 7.33205C7.26473 7.25164 7.28259 7.15337 7.28259 7.06403C7.28259 6.97469 7.26473 6.88535 7.22899 6.79601C7.19325 6.71561 7.13965 6.6352 7.07711 6.57267C7.01458 6.51013 6.93417 6.45653 6.85377 6.42079C6.77336 6.38506 6.67509 6.36719 6.58575 6.36719H5.72809Z" fill="#666666"/>
</g>
<defs>
<clipPath id="clip0_20407_2603">
<rect width="33.52" height="33.5021" fill="white"/>
</clipPath>
</defs>
</svg>
